<?xml version="1.0" standalone="no"?><!DOCTYPE svg PUBLIC "-//W3C//DTD SVG 1.1//EN" "http://www.w3.org/Graphics/SVG/1.1/DTD/svg11.dtd"><svg t="1509442108764" style="" viewBox="0 0 1024 1024" version="1.1" xmlns="http://www.w3.org/2000/svg" p-id="3421" xmlns:xlink="http://www.w3.org/1999/xlink"><defs><style type="text/css"></style></defs><path d="M523.2384 64C379.7376 64 174.6304 137.216 115.2 137.216v495.9104C122.56 693.888 174.1312 875.6096 523.2384 960c349.1072-84.3904 400.0384-266.112 407.2704-326.8736V137.216C871.8336 137.216 666.752 64 523.2384 64z m357.8752 554.432c-6.3488 53.376-51.1872 212.9792-357.888 287.1936-306.816-74.2144-352.1536-233.8304-358.5024-287.1936V182.656c52.3264 0 232.5376-64.2944 358.5152-64.2944 126.1056 0 306.304 64.2944 357.8752 64.2944v435.7632z m-596.5952-48.3584c30.272-48.4096 53.376-104.9216 69.2992-169.5744h-64.512v-31.5264h68.8128v-96h33.4464v96h64.0256v31.5264h-64.0256v70.6944l21.0176-15.2832a1066.5856 1066.5856 0 0 1 45.4016 59.2256l-26.2784 20.544c-11.1488-18.7904-24.5376-38.3744-40.1408-58.752v262.7072h-33.4464V473.088c-16.256 56.6912-35.6864 103.0144-58.304 139.008a278.8224 278.8224 0 0 0-15.296-42.0352z m159.1296 114.6368h182.0672c17.2032-46.5024 35.0464-105.728 53.5168-177.6896l38.7072 10.9824c-21.3376 67.2-40.1408 122.752-56.384 166.7072h89.8432v33.9072H443.648v-33.92z m181.5936-407.9232l-6.2208 9.5616c33.7792 61.1328 81.8816 110.1696 144.32 147.1104a429.1072 429.1072 0 0 0-26.2784 32.4864c-62.1312-43.9424-108.48-93.1456-139.0592-147.5968-37.9136 61.4528-81.408 112.5632-130.4576 153.3184a234.944 234.944 0 0 0-27.2384-30.08c59.264-44.9024 105.7664-99.84 139.5328-164.8h45.4016z m-125.2096 171.4816h195.9296v33.4336H500.032v-33.4336z m57.8304 59.2256l33.4464-8.1152c12.416 43.9424 22.784 87.8848 31.0656 131.84l-35.84 9.0624c-7.9744-49.9968-17.536-94.2592-28.672-132.7872z m-90.8032 19.1104l32.9728-9.5488c12.1088 35.3408 24.5376 78.4896 37.2736 129.4336l-35.3536 10.5088c-10.5216-47.4496-22.144-90.9056-34.8928-130.3936z" p-id="3422"></path></svg>