<?xml version="1.0" standalone="no"?><!DOCTYPE svg PUBLIC "-//W3C//DTD SVG 1.1//EN" "http://www.w3.org/Graphics/SVG/1.1/DTD/svg11.dtd"><svg t="1509441973007" style=""  class='icon' viewBox="0 0 1024 1024" version="1.1" xmlns="http://www.w3.org/2000/svg" p-id="1160" xmlns:xlink="http://www.w3.org/1999/xlink"><defs><style type="text/css"></style></defs><path d="M837.386812 577.077158 837.386812 577.077158c28.199249 0 53.489238-16.059767 65.739237-40.929178 4.895497-9.93528 7.472182-20.875446 7.472182-32.283264 0-40.434921-32.777521-73.212442-73.212442-73.212442-40.434921 0-73.212442 32.777521-73.212442 73.212442S796.951891 577.077158 837.386812 577.077158L837.386812 577.077158 837.386812 577.077158zM837.386812 625.88477 837.386812 625.88477c-67.38983 0-122.020054-54.630225-122.020054-122.020054 0-67.38983 54.630225-122.020054 122.020054-122.020054 67.388806 0 122.020054 54.630225 122.020054 122.020054 0 19.330254-4.494361 37.610596-12.496615 53.852512C927.017178 598.09996 885.446387 625.88477 837.386812 625.88477L837.386812 625.88477 837.386812 625.88477z" p-id="1161" fill="#1296db"></path><path d="M812.983006 414.383752 812.983006 414.383752 812.983006 113.453958c0-13.630439 10.92584-24.457018 24.403806-24.457018 13.57211 0 24.403806 10.789741 24.403806 24.098861l0 50.128701 0 251.15925L812.983006 414.383752 812.983006 414.383752z" p-id="1162" fill="#1296db"></path><path d="M812.983006 856.895121 812.983006 593.346703l48.807612 0 0 300.929794c0 13.507642-10.831696 24.457018-24.403806 24.457018-13.477966 0-24.403806-10.799974-24.403806-24.307615L812.983006 856.895121 812.983006 856.895121z" p-id="1163" fill="#1296db"></path><path d="M512 446.922842 512 446.922842c28.199249 0 53.489238-16.059767 65.739237-40.929178 4.89652-9.93528 7.472182-20.875446 7.472182-32.283264 0-40.433898-32.777521-73.212442-73.212442-73.212442-40.434921 0-73.212442 32.777521-73.212442 73.212442C438.787558 414.144298 471.565079 446.922842 512 446.922842L512 446.922842 512 446.922842zM512 495.730455 512 495.730455c-67.38983 0-122.020054-54.631248-122.020054-122.020054s54.631248-122.020054 122.020054-122.020054 122.020054 54.630225 122.020054 122.020054c0 19.330254-4.494361 37.610596-12.496615 53.852512C601.629343 467.945645 560.059576 495.730455 512 495.730455L512 495.730455 512 495.730455z" p-id="1164" fill="#1296db"></path><path d="M487.596194 479.46091l48.807612 0 0 431.085132c0 13.506619-10.831696 24.457018-24.403806 24.457018-13.477966 0-24.403806-10.799974-24.403806-24.306592l0-37.531801L487.596194 479.46091 487.596194 479.46091z" p-id="1165" fill="#1296db"></path><path d="M186.613188 707.232496 186.613188 707.232496c28.199249 0 53.489238-16.059767 65.739237-40.929178 4.89652-9.93528 7.472182-20.875446 7.472182-32.283264 0-40.433898-32.777521-73.212442-73.212442-73.212442s-73.212442 32.777521-73.212442 73.212442C113.400746 674.453952 146.178267 707.232496 186.613188 707.232496L186.613188 707.232496 186.613188 707.232496zM186.613188 756.040109 186.613188 756.040109c-67.38983 0-122.020054-54.630225-122.020054-122.020054s54.630225-122.020054 122.020054-122.020054S308.633243 566.630225 308.633243 634.020054c0 19.330254-4.494361 37.610596-12.496615 53.852512C276.242532 728.255299 234.671741 756.040109 186.613188 756.040109L186.613188 756.040109 186.613188 756.040109z" p-id="1166" fill="#1296db"></path><path d="M162.208359 739.770564l48.807612 0 0 170.775478c0 13.506619-10.831696 24.457018-24.403806 24.457018-13.477966 0-24.403806-10.799974-24.403806-24.306592l0-37.531801L162.208359 739.770564 162.208359 739.770564z" p-id="1167" fill="#1296db"></path><path d="M487.596194 113.724111c0-13.656021 10.831696-24.727171 24.403806-24.727171 13.477966 0 24.403806 11.0558 24.403806 24.727171l0 170.505325-48.807612 0L487.596194 113.724111 487.596194 113.724111z" p-id="1168" fill="#1296db"></path><path d="M162.208359 113.488751c0-13.526061 10.831696-24.491811 24.403806-24.491811 13.477966 0 24.403806 10.81123 24.403806 24.491811l0 431.05034L162.208359 544.53909 162.208359 113.488751 162.208359 113.488751z" p-id="1169" fill="#1296db"></path></svg>