<?xml version="1.0" standalone="no"?><!DOCTYPE svg PUBLIC "-//W3C//DTD SVG 1.1//EN" "http://www.w3.org/Graphics/SVG/1.1/DTD/svg11.dtd"><svg t="1509960048126" class="icon" style="" viewBox="0 0 1024 1024" version="1.1" xmlns="http://www.w3.org/2000/svg" p-id="2176" xmlns:xlink="http://www.w3.org/1999/xlink"><defs><style type="text/css"></style></defs><path d="M512 877.714286c-102.4 0-182.857143-80.457143-182.857143-182.857143s80.457143-182.857143 182.857143-182.857143 182.857143 80.457143 182.857143 182.857143-80.457143 182.857143-182.857143 182.857143m43.885714-431.542857v-241.371429l138.971429 138.971429c7.314286 7.314286 14.628571 7.314286 29.257143 7.314285 7.314286 0 21.942857 0 29.257143-7.314285 14.628571-14.628571 14.628571-36.571429 0-51.2l-197.485715-197.485715c-14.628571-14.628571-36.571429-14.628571-51.2 0l-197.485714 197.485715c-14.628571 14.628571-14.628571 36.571429 0 51.2 14.628571 14.628571 36.571429 14.628571 51.2 0l138.971429-138.971429v234.057143c-124.342857 14.628571-226.742857 124.342857-226.742858 256 0 138.971429 117.028571 256 256 256s256-117.028571 256-256c-14.628571-124.342857-109.714286-226.742857-226.742857-248.685714" fill="#FF658E" p-id="2177"></path></svg>