<?xml version="1.0" standalone="no"?><!DOCTYPE svg PUBLIC "-//W3C//DTD SVG 1.1//EN" "http://www.w3.org/Graphics/SVG/1.1/DTD/svg11.dtd"><svg t="1509960031141" class="icon" style="" viewBox="0 0 1024 1024" version="1.1" xmlns="http://www.w3.org/2000/svg" p-id="1934" xmlns:xlink="http://www.w3.org/1999/xlink" ><defs><style type="text/css"></style></defs><path d="M362.051873 549.144992c19.968797-6.724145 41.874713 4.808516 48.923246 25.748431 7.049556 20.945031-3.420913 43.373857-23.394826 50.098002-19.968797 6.723122-41.874713-4.803399-48.923246-25.748431C331.60749 578.297962 342.076936 555.868113 362.051873 549.144992L362.051873 549.144992zM362.051873 549.144992" p-id="1935"></path><path d="M642.10008 549.144992c19.968797-6.724145 41.874713 4.808516 48.923246 25.748431 7.054673 20.945031-3.420913 43.373857-23.38971 50.098002-19.973914 6.723122-41.87369-4.803399-48.928363-25.748431C611.655697 578.297962 622.131283 555.868113 642.10008 549.144992L642.10008 549.144992zM642.10008 549.144992" p-id="1936"></path><path d="M842.710051 541.389354c-1.839905-0.004093-3.63376 0.151449-5.441942 0.268106 0.246617-5.084808 0.399089-10.19213 0.405229-15.338337 0.016373-19.050891-1.771343-38.160111-5.143137-56.916291 6.365988-0.813528 12.732999-1.650593 19.086707-2.524496 0 0-47.125297-280.172027-333.167009-280.172027-253.392104 0-327.674924 198.990077-341.286943 277.535991 0 0 6.583952 1.52575 18.083867 3.616364-3.400446 18.741853-5.202489 38.043455-5.223978 57.762565-0.00614 5.101181 0.13917 10.175757 0.367367 15.22475-1.081635-0.041956-2.14485-0.165776-3.238764-0.171915-46.165436-0.046049-83.631746 37.33942-83.679841 83.503832-0.054235 46.165436 37.335327 83.633792 83.499739 83.685981 10.351766 0.010233 20.2236-1.947352 29.374004-5.379521 39.772842 105.712647 157.701718 182.457542 297.109792 182.611038 139.722228 0.149403 258.047124-76.671217 297.791313-182.669366 9.664104 3.920286 20.209274 6.130627 31.283494 6.145977 46.165436 0.048095 83.631746-37.33942 83.679841-83.503832C926.261978 578.906829 888.874463 541.438473 842.710051 541.389354zM895.885134 641.424698c-6.994298 24.77322-25.088398 29.338189-41.560558 31.071669-27.465538 2.89391-60.078307-10.920724-60.078307-10.920724-50.65468 121.670084-156.700925 193.220676-297.04737 189.186803-211.295334-6.081509-263.804245-188.428533-263.804245-188.428533-11.082406 7.673773-33.409924 10.999518-56.417941 10.999518-18.104333 0-42.708707-11.159154-46.905286-40.304961-4.116761-28.555359 19.591197-46.756907 38.680974-52.067866 18.104333-5.03876 46.911426-8.398274 46.911426-8.398274 0.940418-25.38311 3.27458-48.927339 6.826476-70.761624 1.777483-10.926864 3.870144-21.423939 6.235005-31.521924 24.097838 2.77009 52.582589 4.945639 82.759889 4.955872l52.440349-86.7252 46.639227 95.732341c0 0 185.550996 6.620791 383.91481-14.462387 3.113921 14.788821 5.071506 27.477818 6.311753 36.903491 5.143137 39.040155 2.427282 65.210187 2.427282 65.210187 33.822316 1.928932 56.040341 7.389294 69.758784 14.103206C890.958938 594.806961 903.270335 615.260805 895.885134 641.424698z" p-id="1937"></path><path d="M882.509499 635.349329" p-id="1938"></path><path d="M792.44832 278.611485c0 0 75.408457-88.760556 186.943716-73.05076 39.270399 58.123792 24.611537 151.334707-6.285147 193.225793-36.133965-21.991874-69.122287-31.420617-125.677351-32.990369C847.433632 365.79615 833.292564 313.953412 792.44832 278.611485L792.44832 278.611485zM792.44832 278.611485" p-id="1939"></path><path d="M175.246303 365.79615c-56.556087 1.569752-89.544409 10.998495-125.678374 32.990369-30.897707-41.892109-45.555545-135.102001-6.285147-193.225793 111.540376-15.71082 186.944739 73.05076 186.944739 73.05076C189.381232 313.953412 175.246303 365.79615 175.246303 365.79615L175.246303 365.79615zM175.246303 365.79615" p-id="1940"></path><path d="M514.839675 784.38876c33.19196 0 60.099796-26.90886 60.099796-60.10082L454.739878 724.287941C454.739878 757.480924 481.648738 784.38876 514.839675 784.38876z" p-id="1941"></path></svg>