<?xml version="1.0" standalone="no"?><!DOCTYPE svg PUBLIC "-//W3C//DTD SVG 1.1//EN" "http://www.w3.org/Graphics/SVG/1.1/DTD/svg11.dtd"><svg t="1509960038610" class="icon" style="" viewBox="0 0 1024 1024" version="1.1" xmlns="http://www.w3.org/2000/svg" p-id="2058" xmlns:xlink="http://www.w3.org/1999/xlink"><defs><style type="text/css"></style></defs><path d="M746.626137 95.273673c-129.676632-126.29777-340.445955-126.29777-470.071392 0-129.676632 126.348965-129.676632 330.206979 0 454.354564a343.261674 343.261674 0 0 0 208.363163 93.072293v146.263774h-159.728027c-13.925007 0-27.79882 11.109289-27.79882 26.621337 0 13.310669 11.570043 26.621338 27.79882 26.621338h159.728027v155.120488c0 13.310669 11.621238 26.570143 27.850015 26.570143 13.873813 0 27.747625-11.058094 27.747625-26.621338v-155.120488h162.134187c13.873813 0 27.79882-11.058094 27.79882-26.621337 0-13.259474-11.621238-26.570143-27.79882-26.570143H540.515548v-146.263774c76.433957-6.655334 150.512949-35.478052 210.769324-93.072293 125.017898-126.348965 125.017898-330.206979-4.60754-454.354564zM311.316068 511.948805a265.906209 265.906209 0 0 1 0-383.449655c108.840316-106.331767 287.20328-106.331767 395.992401 0a265.906209 265.906209 0 0 1 0 383.449655c-108.840316 106.382962-284.79712 106.382962-395.992401 0z" fill="#EA3E7F" p-id="2059"></path></svg>