<?xml version="1.0" standalone="no"?><!DOCTYPE svg PUBLIC "-//W3C//DTD SVG 1.1//EN" "http://www.w3.org/Graphics/SVG/1.1/DTD/svg11.dtd"><svg t="1509442732078" style="" viewBox="0 0 1030 1024" version="1.1" xmlns="http://www.w3.org/2000/svg" p-id="7534" xmlns:xlink="http://www.w3.org/1999/xlink"><defs><style type="text/css"></style></defs><path d="M505.6 588.8c-6.4 0-12.8 0-12.8-6.4l-473.6-256c-12.8 0-19.2-12.8-19.2-25.6s6.4-25.6 19.2-25.6l473.6-256c6.4-6.4 19.2-6.4 32 0l473.6 256c12.8 6.4 19.2 19.2 19.2 25.6s-6.4 25.6-19.2 25.6L518.4 582.4s-6.4 6.4-12.8 6.4zM102.4 300.8l403.2 217.6 403.2-217.6-403.2-217.6-403.2 217.6z" fill="#1296db" p-id="7535"></path><path d="M505.6 800c-6.4 0-12.8 0-12.8-6.4l-473.6-256c-19.2-6.4-19.2-25.6-12.8-38.4 6.4-12.8 25.6-19.2 44.8-12.8l460.8 243.2L966.4 486.4c12.8-6.4 32 0 44.8 12.8 6.4 12.8 0 32-12.8 44.8l-473.6 256c-6.4-6.4-12.8 0-19.2 0z" fill="#1296db" p-id="7536"></path><path d="M505.6 1011.2c-6.4 0-12.8 0-12.8-6.4l-473.6-256c-12.8-6.4-19.2-25.6-12.8-44.8s25.6-19.2 44.8-12.8l460.8 243.2 460.8-243.2c12.8-6.4 32 0 44.8 12.8 6.4 12.8 0 32-12.8 44.8l-473.6 256c-12.8 0-19.2 6.4-25.6 6.4z" fill="#1296db" p-id="7537"></path></svg>