<?xml version="1.0" standalone="no"?><!DOCTYPE svg PUBLIC "-//W3C//DTD SVG 1.1//EN" "http://www.w3.org/Graphics/SVG/1.1/DTD/svg11.dtd"><svg t="1509442019000" class="icon" style="" viewBox="0 0 1024 1024" version="1.1" xmlns="http://www.w3.org/2000/svg" p-id="1892" xmlns:xlink="http://www.w3.org/1999/xlink" width="32" height="32"><defs><style type="text/css"></style></defs><path d="M916.173 989.867h-68.267c-37.717 0-68.267-30.55-68.267-68.267v-68.267c0-37.717 30.55-68.266 68.267-68.266h68.267c37.717 0 68.266 30.549 68.266 68.266V921.6c0 37.717-30.583 68.267-68.266 68.267z m0-136.534h-68.267V921.6h68.267v-68.267z m0-102.4h-68.267c-37.717 0-68.267-30.549-68.267-68.266V614.4c0-37.717 30.55-68.267 68.267-68.267h68.267c37.717 0 68.266 30.55 68.266 68.267v68.267c0 37.717-30.583 68.266-68.266 68.266z m0-136.533h-68.267v68.267h68.267V614.4z m-193.98-170.667c14.78-31.061 23.313-65.706 23.313-102.4 0-131.96-106.974-238.933-238.933-238.933S267.639 209.374 267.639 341.333c0 108.203 71.988 199.51 170.667 228.898v69.53c-13.346-3.106-26.658-6.246-39.287-10.99-152.44 41.505-269.312 168.857-295.902 326.962H34.133c24.03-167.56 134.895-306.722 285.457-371.063-72.977-56.15-120.217-144.111-120.217-243.337 0-169.676 137.523-307.2 307.2-307.2s307.2 137.524 307.2 307.2c0 35.977-6.383 70.383-17.75 102.4h-73.83z m-113.22 102.4h68.266c37.718 0 68.267 30.55 68.267 68.267v68.267c0 37.717-30.55 68.266-68.267 68.266h-68.266c-37.718 0-68.267-30.549-68.267-68.266V614.4c0-37.717 30.55-68.267 68.267-68.267z m0 136.534h68.266V614.4h-68.266v68.267z m0 102.4h68.266c37.718 0 68.267 30.549 68.267 68.266V921.6c0 37.717-30.55 68.267-68.267 68.267h-68.266c-37.718 0-68.267-30.55-68.267-68.267v-68.267c0-37.717 30.55-68.266 68.267-68.266z m0 136.533h68.266v-68.267h-68.266V921.6z" p-id="1893" fill="#1296db"></path></svg>